<svg xmlns="http://www.w3.org/2000/svg" width="15" height="12" viewBox="0 0 15 12"><g><g><path fill="#fff" d="M1.34 12a1.27 1.27 0 0 1-.879-.338l4.251-4.328c.106.078.205.15.293.217.319.238.577.424.775.558.198.134.461.27.79.409.33.14.637.209.922.209h.016c.285 0 .592-.07.921-.21.33-.138.593-.274.791-.408.198-.134.456-.32.774-.558l.295-.216 4.25 4.327a1.27 1.27 0 0 1-.878.337zm2.406-5.361L0 10.452V3.87c.245.279.528.526.846.742 1.185.82 2.15 1.495 2.9 2.028zM15 3.869v6.583L11.256 6.64c.798-.567 1.767-1.244 2.907-2.03.318-.22.597-.468.837-.74zM14.603.401c.264.267.397.588.397.963 0 .449-.137.878-.41 1.287a4.02 4.02 0 0 1-1.021 1.048 8169.349 8169.349 0 0 0-3.917 2.77l-.126.09-.23.17c-.182.133-.332.24-.452.323a8.94 8.94 0 0 1-.436.277 2.5 2.5 0 0 1-.481.23c-.15.052-.29.077-.418.077h-.017c-.128 0-.268-.025-.419-.077a2.501 2.501 0 0 1-.48-.23 8.45 8.45 0 0 1-.436-.277 17.9 17.9 0 0 1-.452-.324l-.231-.169-.125-.09a560.72 560.72 0 0 0-2.193-1.555A366.205 366.205 0 0 1 1.44 3.698a4.189 4.189 0 0 1-.98-.984C.155 2.297 0 1.909 0 1.55 0 1.108.116.74.348.443.579.148.91.001 1.339.001h12.322c.362 0 .676.133.942.4z"/></g></g></svg>